<svg xmlns="http://www.w3.org/2000/svg" viewBox="0 0 20 20" id="Cc"><path fill-rule="evenodd" d="M16 13a1 1 0 0 1-1 1h-2a2 2 0 0 1-2-2V8a2 2 0 0 1 2-2h2a1 1 0 0 1 0 2h-1a1 1 0 0 0-1 1v2a1 1 0 0 0 1 1h1a1 1 0 0 1 1 1m-7 0a1 1 0 0 1-1 1H6a2 2 0 0 1-2-2V8a2 2 0 0 1 2-2h2a1 1 0 0 1 0 2H7a1 1 0 0 0-1 1v2a1 1 0 0 0 1 1h1a1 1 0 0 1 1 1m8 5H3a1 1 0 0 1-1-1V3a1 1 0 0 1 1-1h14a1 1 0 0 1 1 1v14a1 1 0 0 1-1 1M0 2v16a2 2 0 0 0 2 2h16a2 2 0 0 0 2-2V2a2 2 0 0 0-2-2H2a2 2 0 0 0-2 2" fill="#6b7280" class="color000000 svgShape"></path></svg>